<?xml version="1.0" encoding="utf-8"?>
<!-- Generator: Adobe Illustrator 21.0.0, SVG Export Plug-In . SVG Version: 6.00 Build 0)  -->
<svg version="1.1" id="Vrstva_1" xmlns="http://www.w3.org/2000/svg" xmlns:xlink="http://www.w3.org/1999/xlink" x="0px" y="0px"
	 viewBox="0 0 90 89" style="enable-background:new 0 0 90 89;" xml:space="preserve"
	 height="90"
	 width="89"
	 >
<style type="text/css">
	.st0{fill:none;stroke:#000000;stroke-width:2;stroke-linecap:round;stroke-linejoin:round;}
	.st1{fill:none;stroke:#000000;stroke-width:2;stroke-linecap:round;stroke-linejoin:round;stroke-dasharray:2,5;}
</style>
<title>Artboard 11</title>
<g>
	<path d="M15.3,25.1c0,4.6,3.7,8.3,8.3,8.3s8.3-3.7,8.3-8.3s-3.7-8.3-8.3-8.3l0,0C19,16.8,15.3,20.5,15.3,25.1z M29.1,25.1
		c0,3.1-2.5,5.5-5.5,5.5s-5.5-2.5-5.5-5.5c0-3.1,2.5-5.5,5.5-5.5S29.1,22,29.1,25.1z"/>
	<path d="M43.9,39.9l9.7-9.7c0.6-0.5,0.6-1.4,0-2l0,0l-4.2-4.1c-0.5-0.5-1.3-0.5-1.9-0.1l-9.4,8.2l-9.2,4H12.5c-0.4,0-0.7,0.2-1,0.5
		l-9.7,11c-0.3,0.4-0.4,0.9-0.3,1.3l4.2,12.4c0.2,0.7,1,1.1,1.8,0.9c0.1,0,0.1,0,0.2-0.1l5.5-2.8c0.5-0.2,0.8-0.7,0.8-1.2v23.6
		c0,3.8,3,7,6.9,7H21h11.1c0.8,0,1.4-0.6,1.4-1.4l0,0v-42l10.3-5.2C43.7,40.2,43.8,40.1,43.9,39.9L43.9,39.9z M13.9,58.3
		c0-0.2,0-0.3-0.1-0.5l-2.5-6.2l2.6-3.2V58.3z M31.3,43.2c-0.5,0.2-0.8,0.7-0.8,1.2v41.5H25v-22c0.1-0.8-0.5-1.4-1.3-1.5
		c-0.8-0.1-1.4,0.5-1.5,1.3c0,0.1,0,0.2,0,0.2V86h-1.4c-2.3,0-4.2-1.9-4.2-4.2l0,0V44.5c0-0.8-0.6-1.4-1.4-1.4
		c-0.4,0-0.8,0.2-1.1,0.5l-5.5,6.9c-0.3,0.4-0.4,0.9-0.2,1.4l2.3,5.7l-3,1.5L4.3,48.9l8.8-10h16c0.2,0,0.4,0,0.5-0.1l9.7-4.2
		c0.1-0.1,0.3-0.1,0.4-0.2l8.7-7.5l2.3,2.3l-8.6,8.6L31.3,43.2z"/>
	<path d="M20.8,44.5h1.4v11.1H25V44.5h1.4v-2.8h-5.5L20.8,44.5L20.8,44.5z"/>
	<path d="M88.6,0.2H37.4c-0.7,0-1.3,0.6-1.3,1.4v26.3h2.8V3h48.4v37.4c0,2.3-1.9,4.1-4.2,4.2H40.2v2.8h42.9c3.8,0,6.9-3.1,6.9-6.9
		V1.6C90,0.8,89.4,0.2,88.6,0.2z"/>
	<path d="M7,14h0.7l3.7,5c0.3,0.3,0.7,0.6,1.1,0.5c0.1,0,0.3,0,0.4-0.1c0.6-0.2,1-0.7,1-1.3v-4.2h8.3c2.3,0,4.2-1.9,4.2-4.1l0,0V4.3
		c0-2.3-1.9-4.2-4.1-4.2l0,0H7C4.7,0.1,2.8,2,2.8,4.3l0,0v5.5C2.8,12.2,4.7,14,7,14z M5.6,4.4C5.6,3.6,6.2,3,7,3l0,0h15.2
		c0.8,0,1.4,0.6,1.4,1.4l0,0v5.5c0,0.8-0.6,1.4-1.4,1.4l0,0h-9.7c-0.8,0-1.4,0.6-1.4,1.3c0,0,0,0,0,0.1v1.4l-1.6-2.3
		c-0.3-0.3-0.7-0.6-1.1-0.6H7c-0.8,0-1.4-0.6-1.4-1.4l0,0V4.4z"/>
	<rect x="8.4" y="5.7" width="12.4" height="2.8"/>
	<circle cx="48.7" cy="67.5" r="7.1"/>
	<circle cx="64.8" cy="67.5" r="7.1"/>
	<circle cx="80.5" cy="67.5" r="7.1"/>
	<path d="M41.6,82.9c0-3.9,3.2-7.1,7.1-7.1s7.1,3.2,7.1,7.1"/>
	<path d="M57.7,82.9c0-3.9,3.2-7.1,7.1-7.1s7.1,3.2,7.1,7.1"/>
	<path d="M73.4,82.9c0-3.9,3.2-7.1,7.1-7.1c3.9,0,7.1,3.2,7.1,7.1"/>
	<rect x="41.6" y="82.9" width="14.2" height="6.1"/>
	<rect x="57.7" y="82.9" width="14.2" height="6.1"/>
	<rect x="73.4" y="82.9" width="14.2" height="6.1"/>
	<polyline class="st0" points="63.1,21.2 59.6,24.7 56,21.2 	"/>
	<path class="st0" d="M56,21.2c-1.9-2-1.9-5.1,0.1-7.1c2-1.9,5.1-1.9,7.1,0.1c1.9,1.9,1.9,5.1,0,7"/>
	<circle class="st0" cx="59.6" cy="17.7" r="1.6"/>
	<line class="st0" x1="79" y1="8.5" x2="73.8" y2="13.8"/>
	<line class="st0" x1="79" y1="13.8" x2="73.8" y2="8.5"/>
	<rect x="75" y="25" class="st0" width="8" height="7"/>
	<polyline class="st0" points="83,25 79,21.2 75,25 	"/>
	<path class="st1" d="M79,35.8c0,2.1-1.7,3.8-3.8,3.8H63.5c-2.1,0-3.8-1.7-3.8-3.8v-6.9"/>
</g>
</svg>
