<svg id="Vrstva_1" data-name="Vrstva 1" xmlns="http://www.w3.org/2000/svg" viewBox="0 0 103.14 107"><defs><style>.cls-1{fill:#ed7103;}.cls-2,.cls-3,.cls-4{fill:none;stroke:#000;stroke-linecap:round;stroke-linejoin:round;stroke-width:2.95px;}.cls-3{stroke-dasharray:13.76 6.88;}.cls-4{stroke-dasharray:0.98 4.91;}</style></defs><title>Artboard 10</title><path class="cls-1" d="M18.25,31.91s4.91-6.1,34.16-6.1,32.47,6.1,32.47,6.1-.26-9.45-4.11-14.45-7.61-3.56-10.53-4.31S62.92,8.72,57.75,8.3s-13-.89-16.64.72-3.1,4-7.64,4.07-7.79-1.27-9.7,2.07-6,9.48-6,13.89S18.25,31.91,18.25,31.91Z"/><path class="cls-1" d="M17.79,64.56a20.7,20.7,0,0,0,14.78,5.92C42.08,70.49,52,62.42,52.15,59c0,0,4.2,11.4,15.57,11.4s17.63-5.87,17.63-5.87.75,8.19-7.05,16S63.56,96.94,63.56,96.94l-11,1.76-9.9-.5-7.27-4.72L22.5,77.7A20.48,20.48,0,0,1,17.79,64.56Z"/><path class="cls-2" d="M85.35,63.6a21.24,21.24,0,0,1-15.67,6.91c-8.63,0-15-4.18-17.53-11.48a.61.61,0,0,0-.58-.41A.63.63,0,0,0,51,59c-2.51,7.29-8.9,11.47-17.52,11.47A21.22,21.22,0,0,1,17.79,63.6"/><path class="cls-2" d="M51.57,53a6.2,6.2,0,0,1,5.87,4.18c1.18,3.43,4.25,7.71,12.24,7.71h0A15.67,15.67,0,0,0,85.35,49.24V37.89s-6.22-6.49-33.78-6.49-33.78,6.49-33.78,6.49V49.24A15.67,15.67,0,0,0,33.46,64.92h0c8,0,11.06-4.28,12.24-7.71A6.21,6.21,0,0,1,51.57,53Z"/><path class="cls-2" d="M85.35,32.3s-6.22-6.49-33.78-6.49S17.79,32.3,17.79,32.3"/><path class="cls-3" d="M33.46,58.39a9.16,9.16,0,0,1-9.15-9.15V41.61"/><path class="cls-2" d="M85.35,49.24V66.33a15.72,15.72,0,0,1-3.55,10L67.73,93.47a14.24,14.24,0,0,1-11,5.22H46.43a14.23,14.23,0,0,1-11-5.22L21.34,76.28a15.72,15.72,0,0,1-3.55-10V49.24"/><path class="cls-2" d="M85.35,37.89V30.84a17.53,17.53,0,0,0-1.81-7.76l-3.21-6.52a6.07,6.07,0,0,0-5.44-3.39h-4a8.45,8.45,0,0,1-5.22-1.81l-1.26-1a9.64,9.64,0,0,0-6-2.07H44.75a9.63,9.63,0,0,0-6,2.07l-1.26,1a8.45,8.45,0,0,1-5.22,1.81h-4a6.07,6.07,0,0,0-5.44,3.39L19.6,23.08a17.52,17.52,0,0,0-1.81,7.76v7.06"/><path class="cls-4" d="M56.77,77.7S54.12,87.31,54.12,94"/><path class="cls-4" d="M46.37,77.7S49,87.31,49,94"/><path class="cls-4" d="M67.72,78.63S59.41,86.33,59.41,93"/><path class="cls-4" d="M35.42,78.63s8.31,7.7,8.31,14.39"/><line class="cls-2" x1="66.04" y1="32.13" x2="66.04" y2="32.12"/><line class="cls-2" x1="64.68" y1="26.39" x2="60.46" y2="8.54"/><line class="cls-2" x1="37.1" y1="32.13" x2="37.1" y2="32.12"/><line class="cls-2" x1="42.68" y1="8.54" x2="38.46" y2="26.39"/></svg>